<?xml version="1.0" encoding="utf-8"?>
<!-- Generator: Adobe Illustrator 26.3.1, SVG Export Plug-In . SVG Version: 6.00 Build 0)  -->
<svg version="1.1" xmlns="http://www.w3.org/2000/svg" xmlns:xlink="http://www.w3.org/1999/xlink" x="0px" y="0px"
	 viewBox="0 0 52 52" style="enable-background:new 0 0 52 52;" xml:space="preserve">
<style type="text/css">
	.st0{fill:none;stroke:#9F938B;stroke-width:1.5;}
	.st1{display:none;}
	.st2{display:inline;fill:#9F938B;}
	.st3{clip-path:url(#SVGID_00000083088097763657374850000002317510449629701281_);}
	.st4{fill:#9F938B;}
</style>
<g id="Layer_1">
	<circle class="st0" cx="26" cy="26" r="25.2"/>
</g>
<g id="Layer_3" class="st1">
	<path class="st2" d="M29.5,14.4c0-0.2,0-0.5-0.1-0.7c-0.1-0.2-0.2-0.4-0.4-0.6c-0.2-0.2-0.4-0.3-0.6-0.4c-0.2-0.1-0.5-0.1-0.7-0.1
		h-8.9c-0.5,0-1,0.2-1.3,0.5c-0.3,0.3-0.5,0.8-0.6,1.3c0,0.5,0.2,1,0.5,1.3c0.3,0.4,0.8,0.6,1.3,0.6v19c0,0.9,0.3,1.8,0.8,2.6
		c0.5,0.8,1.2,1.3,2.1,1.7c0.8,0.3,1.8,0.4,2.7,0.2c0.9-0.2,1.7-0.7,2.3-1.4c0.7,0.7,1.6,1.2,2.5,1.4c0.4,0.1,0.7,0.1,1.1,0.1
		c0.7,0,1.3-0.1,2-0.4c0.6-0.3,1.2-0.6,1.7-1.1c0.5-0.5,0.9-1,1.1-1.7c0.3-0.6,0.4-1.3,0.4-2c0-1-0.3-2-0.9-2.9l-3.7-6.8
		c-0.1-0.1-0.1-0.2-0.2-0.2c-0.1-0.1-0.2-0.1-0.3-0.1c-0.1,0-0.2,0-0.3,0.1c-0.1,0.1-0.2,0.1-0.2,0.2l-1.9,3.6V16.3
		c0.5,0,1-0.2,1.3-0.6C29.3,15.4,29.5,14.9,29.5,14.4z M23.2,38.5c-0.9,0-1.7-0.3-2.3-1c-0.6-0.6-1-1.5-1-2.3v-19h6.6v14.5
		c0,0-0.7,1.3-0.8,1.6V22.2c0-0.2-0.1-0.3-0.2-0.4c-0.1-0.1-0.3-0.2-0.4-0.2h-3.8c-0.1,0-0.2,0-0.2,0s-0.1,0.1-0.2,0.1
		c-0.1,0.1-0.1,0.1-0.1,0.2c0,0.1,0,0.2,0,0.2V35c0,0.5,0.2,1.1,0.5,1.5c0.3,0.4,0.8,0.8,1.3,0.9c0.5,0.2,1.1,0.1,1.6-0.1
		c0.5-0.2,0.9-0.5,1.2-1c0.1,0.3,0.3,0.7,0.5,1c-0.3,0.4-0.7,0.7-1.1,0.9C24.2,38.4,23.7,38.5,23.2,38.5z M24.5,22.8V35
		c0,0.2,0,0.3-0.1,0.5c-0.1,0.2-0.2,0.3-0.3,0.4c-0.1,0.1-0.3,0.2-0.4,0.3c-0.2,0.1-0.3,0.1-0.5,0.1c-0.2,0-0.3,0-0.5-0.1
		c-0.2-0.1-0.3-0.2-0.4-0.3c-0.1-0.1-0.2-0.3-0.3-0.4c-0.1-0.2-0.1-0.3-0.1-0.5V22.8H24.5z M30.1,26.5l3.1,5.8c0,0,0,0,0,0
		c0.5,0.7,0.7,1.5,0.7,2.3c0,0.6-0.1,1.2-0.4,1.7c-0.2,0.5-0.6,1-1.1,1.4c-0.5,0.4-1,0.6-1.6,0.8c-0.6,0.1-1.2,0.1-1.7,0
		c-0.7-0.2-1.4-0.5-1.9-1s-0.9-1.1-1.1-1.8c-0.3-1.3,0.2-2.3,0.8-3.5L30.1,26.5z M27.7,15.1h-8.9c-0.1,0-0.2,0-0.3,0
		c-0.1,0-0.2-0.1-0.2-0.1c-0.1-0.1-0.1-0.1-0.2-0.2c0-0.1-0.1-0.2-0.1-0.3s0-0.2,0.1-0.3c0-0.1,0.1-0.2,0.2-0.2
		c0.1-0.1,0.1-0.1,0.2-0.1c0.1,0,0.2,0,0.3,0h8.9c0.1,0,0.2,0,0.3,0c0.1,0,0.2,0.1,0.2,0.1c0.1,0.1,0.1,0.1,0.2,0.2
		c0,0.1,0.1,0.2,0.1,0.3s0,0.2-0.1,0.3c0,0.1-0.1,0.2-0.2,0.2C28.1,14.9,28,15,27.9,15C27.8,15,27.8,15.1,27.7,15.1z"/>
</g>
<g id="Layer_2">
	<g>
		<defs>
			<rect id="SVGID_1_" x="11.6" y="11.6" width="28.8" height="28.8"/>
		</defs>
		<clipPath id="SVGID_00000181082781192973102270000005805025989703113133_">
			<use xlink:href="#SVGID_1_"  style="overflow:visible;"/>
		</clipPath>
		<g style="clip-path:url(#SVGID_00000181082781192973102270000005805025989703113133_);">
			<path class="st4" d="M18.8,21.3c0.5,0,0.8-0.4,0.8-0.8c0-0.5-0.4-0.8-0.8-0.8c-0.5,0-0.8,0.4-0.8,0.8
				C18,20.9,18.4,21.3,18.8,21.3z"/>
			<path class="st4" d="M29.5,27.5c-0.1-0.3-0.4-0.4-0.6-0.3c-0.5,0.2-1,0.5-1.5,0.8c-0.2,0.2-0.3,0.5-0.1,0.7
				c0.1,0.1,0.2,0.2,0.4,0.2c0.1,0,0.2,0,0.3-0.1c0.4-0.3,0.8-0.5,1.2-0.7C29.4,28.1,29.6,27.8,29.5,27.5z"/>
			<path class="st4" d="M37.3,33.3c0-2.3-1.1-4.7-3.3-7.3c-1.7-1.9-3.8-3.2-6.3-3.8C27.2,22,26.6,22,26,21.9c0,0,0.1-0.6,0.2-0.6
				c0,0,0-0.4,0-0.4c1.1-0.1,2.4-0.4,3.6-0.9c1.6-0.6,3-1.5,4-2.4c1.1-1,1.5-2.1,1.1-2.9c-0.3-0.8-1.3-1.3-2.8-1.4
				c0-0.1,0-0.3-0.1-0.4c-0.3-0.9-1.4-1.3-2.9-1.3c-1.3,0-2.8,0.3-4.2,0.9c-1.6,0.6-3.1,1.5-4,2.5c-0.3,0-0.6,0.1-0.9,0.2
				c-1.6,0.5-3.2,1.5-4.6,2.9c-0.2,0.2-0.2,0.5,0,0.7c0.2,0.2,0.5,0.2,0.7,0c1.3-1.2,2.8-2.2,4.2-2.6c0.5-0.2,1.1-0.3,1.6-0.3
				c0.8,0,1.6,0.2,2.2,0.7c0,0,0,0,0,0c0.1,0.1,0.3,0.2,0.4,0.3c0.2,0.1,0.3,0,0.5-0.1c0,0,0,0,0,0c0.3-0.2,0.6-0.4,1-0.6
				c0.6-0.3,1.2-0.7,1.9-0.9c0,0,0,0,0,0c1.3-0.5,2.7-0.9,4.1-0.8c1,0,1.7,0.3,1.9,0.8c0.2,0.4-0.2,1.1-0.9,1.8
				c-0.9,0.8-2.2,1.6-3.6,2.2c-1.3,0.5-2.6,0.8-3.8,0.8c-0.3,0-0.5,0.2-0.5,0.5v0.7c-0.4,1.7-1.2,2.9-2.5,3.7c-1.1,0.7-2.5,1-4,0.8
				c-2.6-0.2-4.8-1.7-4.8-3.1c0-0.6,0.3-1.5,1-2.4c0.2-0.2,0.1-0.5-0.1-0.7c-0.2-0.2-0.5-0.1-0.7,0.1c-0.7,1.1-1.1,2.1-1.1,3
				c0,0,0,0,0,0c0.1,2,2.3,3.4,4.7,3.9c-1.2,2.4-0.9,4.6-0.3,6c0.4,1,1,1.8,1.3,2.3c-1.6,1.1-2.4,2.4-2.2,3.5
				c0.2,1.1,1.3,1.6,2.4,1.6c0.8,0,1.8-0.3,2.7-0.7c1.3-0.7,2.7-1.8,3.9-3.2c0.1,0.1,0.1,0.3,0.2,0.4c0,0.1-0.1,0.2-0.1,0.2
				c-0.4,0.3-0.7,0.7-0.9,1.2c-0.2,0.8,0.1,1.6,0.8,2c0.7,0.4,1.5,0.6,2.3,0.6c0.9,0,1.9-0.2,3.1-0.6c0.2-0.1,0.3-0.2,0.5-0.2
				c1.4-0.1,2.8-0.7,3.9-1.7c0.4,0.2,0.9,0.4,1.3,0.4c1.4,0,2.5-1.1,2.5-2.5C39.1,34.6,38.4,33.7,37.3,33.3z M31.1,13.4
				c-0.1,0-0.1,0-0.2,0c0,0,0,0,0,0c-2.1,0.2-4.1,1-5.9,2.1c0,0,0,0,0,0c-0.1,0.1-0.2,0.1-0.3,0.2c-0.7-0.5-1.5-0.8-2.3-0.8
				c0.8-0.6,1.7-1.1,2.8-1.5c1.4-0.5,2.7-0.8,3.9-0.8C30.2,12.6,30.9,12.9,31.1,13.4C31.1,13.3,31.1,13.4,31.1,13.4
				C31.1,13.4,31.1,13.4,31.1,13.4z M34.8,36.9c-1,0.9-2.3,1.5-3.6,1.7c-0.3,0-0.6,0.2-0.8,0.3c-1.7,0.7-3.1,0.7-4.2,0.3
				c-0.4-0.2-0.7-0.6-0.6-1c0.1-0.3,0.4-0.7,0.7-0.9c0.9,0.8,2.3,1.3,2.4,1.3c0.2,0.1,0.5,0,0.6-0.3c0.1-0.2,0-0.5-0.3-0.6
				c-0.4-0.2-1.7-0.8-2.3-1.4c0,0,0,0,0,0c-0.4-0.5-0.6-1-0.8-1.5c-0.4-1.3-0.3-2.8,0.4-4.1c0.1-0.2,0-0.5-0.2-0.7
				c-0.2-0.1-0.5,0-0.7,0.2c-0.6,1-0.8,2.3-0.7,3.5c0,0.5,0.1,0.9,0.2,1.3c-1.7,2.1-4.2,4-6.2,4c-0.2,0-0.5,0-0.7-0.1
				c-0.3-0.1-0.7-0.3-0.8-0.7c-0.1-0.6,0.4-1.7,2.2-2.8c0.1-0.1,0.2-0.2,0.2-0.4c0-0.1,0-0.3-0.1-0.4c0,0-0.9-0.9-1.5-2.4
				c-0.7-1.8-0.6-3.7,0.4-5.5c0,0,0,0,0,0c0.3,0,0.5,0,0.8,0c2.4,0,5-1,6.3-3.8c0.2-0.4,2.7,0.5,3,0.6c1.3,0.5,2.5,1.2,3.7,2.2
				c0,0,0,0,0,0c0.4,0.3,0.7,0.6,1,1c0,0,0,0,0,0c2.1,2.4,3.1,4.6,3.1,6.7c0,0,0,0,0,0C36.4,34.7,35.8,36,34.8,36.9z M36.5,37.3
				c-0.2,0-0.4,0-0.6-0.1c0.4-0.5,0.7-1,0.9-1.5c0.1-0.2,0.2-0.5,0.3-0.7c0.1-0.2,0.1-0.4,0.1-0.6c0.5,0.3,0.8,0.8,0.8,1.4
				C38.1,36.6,37.4,37.3,36.5,37.3z"/>
		</g>
	</g>
</g>
</svg>
