<svg xmlns="http://www.w3.org/2000/svg" viewBox="0 0 51.94 51.94"><defs><style>.cls-1{fill:none;stroke:#9f938b;stroke-width:1.5px;}.cls-2{fill:#9f938b;}</style></defs><g id="Layer_1" data-name="Layer 1"><circle class="cls-1" cx="25.97" cy="25.97" r="25.22"/></g><g id="Layer_3" data-name="Layer 3"><path class="cls-2" d="M29.54,14.4a2,2,0,0,0-.14-.72,1.69,1.69,0,0,0-.41-.61,2.06,2.06,0,0,0-.6-.41,2,2,0,0,0-.72-.14h-9a1.86,1.86,0,0,0-1.31.55,1.82,1.82,0,0,0-.55,1.3,1.86,1.86,0,0,0,1.82,1.89v19a4.55,4.55,0,0,0,.79,2.56,4.55,4.55,0,0,0,4.76,1.84,4.52,4.52,0,0,0,2.3-1.36,5,5,0,0,0,2.52,1.36,4.9,4.9,0,0,0,1.08.12,5.16,5.16,0,0,0,4.74-3.16,5.27,5.27,0,0,0,.39-2,5.67,5.67,0,0,0-.91-2.91l-3.68-6.83a.54.54,0,0,0-.22-.23.59.59,0,0,0-.31-.09.62.62,0,0,0-.32.09.64.64,0,0,0-.22.24l-1.89,3.59V16.27a1.93,1.93,0,0,0,1.3-.56A1.88,1.88,0,0,0,29.54,14.4ZM23.19,38.53a3.28,3.28,0,0,1-3.29-3.3v-19h6.59V30.79s-.67,1.3-.79,1.57V22.19a.62.62,0,0,0-.18-.43.58.58,0,0,0-.43-.18H21.3a.59.59,0,0,0-.23.05.53.53,0,0,0-.2.13.46.46,0,0,0-.13.2.59.59,0,0,0,0,.23V35a2.53,2.53,0,0,0,.5,1.5,2.43,2.43,0,0,0,1.3.9,2.38,2.38,0,0,0,1.58-.06,2.5,2.5,0,0,0,1.23-1,5.06,5.06,0,0,0,.46,1,3.48,3.48,0,0,1-1.14.91A3.36,3.36,0,0,1,23.19,38.53ZM24.48,22.8V35a1.43,1.43,0,0,1-.09.5,1.19,1.19,0,0,1-.28.42,1.26,1.26,0,0,1-.92.39,1.16,1.16,0,0,1-.49-.1,1.22,1.22,0,0,1-.42-.29,1.19,1.19,0,0,1-.28-.42,1.23,1.23,0,0,1-.09-.5V22.8Zm5.66,3.67,3.14,5.84,0,0a4.48,4.48,0,0,1,.74,2.3,3.93,3.93,0,0,1-.38,1.68,3.93,3.93,0,0,1-6.25,1.13,3.79,3.79,0,0,1-1.06-1.85,5,5,0,0,1,.82-3.47ZM27.67,15.05h-9a.63.63,0,0,1-.27,0,.64.64,0,0,1-.22-.14.82.82,0,0,1-.16-.22A.8.8,0,0,1,18,14.4a.86.86,0,0,1,.05-.27.65.65,0,0,1,.16-.21.52.52,0,0,1,.22-.14.63.63,0,0,1,.27,0h9a.57.57,0,0,1,.26,0,.49.49,0,0,1,.23.14.51.51,0,0,1,.15.21.66.66,0,0,1,.06.27.72.72,0,0,1-.21.48.59.59,0,0,1-.23.14A.57.57,0,0,1,27.67,15.05Z"/></g></svg>